<svg width="424" height="198" viewBox="0 0 424 198" fill="none" xmlns="http://www.w3.org/2000/svg">
<path fill-rule="evenodd" clip-rule="evenodd" d="M51.4699 17.7498C58.2189 21.3931 63.4715 26.5467 67.2279 33.1794L67.8669 34.3005L68.506 33.1794C72.2467 26.5312 77.5149 21.3931 84.2639 17.7498L85.3861 17.1115L84.2639 16.4731C77.5149 12.9388 72.2623 7.86305 68.506 1.21477L67.8669 0.09375L67.2279 1.21477C63.4715 7.84748 58.2189 12.9388 51.4699 16.4731L50.3477 17.1115L51.4699 17.7498ZM105.929 76.9761C105.742 70.3122 102.968 64.8473 97.5903 60.5812H97.5592C91.6363 55.8635 84.7783 53.3568 76.985 53.0765C69.0047 52.8119 61.1647 54.2443 53.4806 57.3894C47.8227 59.6158 42.9129 62.7142 38.7358 66.7001C34.5586 70.6859 31.301 75.3568 28.9319 80.7284C26.5627 86.0999 25.3781 92.1254 25.3781 97.9485C25.3781 103.772 26.5315 109.283 28.8539 114.468C31.1763 119.653 34.2936 124.215 38.237 128.154C42.1804 132.093 46.794 135.207 52.0778 137.527C57.3616 139.847 63.2533 140.999 69.7373 140.999C73.5404 140.999 77.6085 140.687 81.9727 140.033C84.56 139.566 87.2565 138.975 90.0309 138.227H90.1712C94.1613 136.935 97.6839 137.449 100.739 139.753C101.752 140.392 102.921 140.812 104.215 140.999H105.462V97.1077H105.321C97.076 100.704 88.5034 104.005 79.6035 106.963C80.2582 107.524 80.8037 108.116 81.2713 108.769C82.1909 110.155 82.8455 111.774 83.2196 113.627C83.5937 115.2 83.7807 117.613 83.7807 120.852C83.6872 126.239 82.7988 130.022 81.131 132.249C79.2762 134.662 76.081 135.861 71.5453 135.861C68.3813 135.861 65.4354 135.051 62.7078 133.432C59.9646 131.828 57.7201 129.789 55.9588 127.329C54.1976 124.869 52.6857 122.113 51.4388 119.061C50.1918 116.009 49.319 113.02 48.8046 110.108C48.2903 107.197 48.0409 104.535 48.0409 102.121C48.0409 95.4574 48.5553 89.572 49.5684 84.4807L49.7087 84.0603C50.6283 79.3427 52.9506 74.8119 56.6602 70.4524C62.022 64.0688 68.8489 60.877 77.0941 60.877C78.5748 60.877 80.1023 61.0171 81.6765 61.2974L81.8168 61.4375C84.6068 62.0759 86.5083 63.6484 87.5215 66.1551C88.6437 68.9265 88.3164 71.6668 86.5551 74.3448C86.4616 74.5472 86.3681 74.7652 86.2746 75.0454C85.542 76.618 85.1679 78.2372 85.1679 79.9032C85.3549 84.0759 87.2097 87.1743 90.7323 89.2139C92.3065 90.1325 93.9743 90.5996 95.7355 90.5996C97.7774 90.5996 99.6789 89.9924 101.44 88.7935V88.6534H101.58V88.5133H101.721L102.422 87.8126L102.562 87.6725C102.843 87.4078 103.124 87.0808 103.404 86.7072L103.544 86.567C103.638 86.4736 103.685 86.3802 103.685 86.2868C103.872 86.0065 104.012 85.8197 104.105 85.7263L104.246 85.5861C104.246 85.5083 104.261 85.4305 104.308 85.3837C104.355 85.337 104.386 85.2747 104.386 85.1813C104.48 85.0879 104.526 84.9945 104.526 84.9011L104.667 84.6208C104.76 84.5274 104.807 84.3873 104.807 84.2004L104.947 84.0603C104.947 83.9669 104.994 83.8268 105.087 83.6399C105.181 83.4531 105.228 83.313 105.228 83.2196V82.9393L105.368 82.5189C105.649 81.5069 105.789 80.4793 105.789 79.4672C105.882 79.296 105.929 78.969 105.929 78.5019V76.9761ZM175.741 97.5332C175.741 104.026 175.398 109.74 174.697 114.691C173.995 119.642 172.951 123.83 171.564 127.256C170.348 130.23 168.509 132.518 166 134.138C163.506 135.757 160.622 136.567 157.38 136.567C154.138 136.567 151.27 135.726 148.761 134.06C146.252 132.394 144.397 130.121 143.197 127.256C141.794 123.83 140.765 119.642 140.064 114.691C139.362 109.74 139.019 104.01 139.019 97.5332C139.019 84.7504 140.422 74.8014 143.197 67.6704C144.397 64.6966 146.252 62.4079 148.761 60.7886C151.27 59.1694 154.138 58.3597 157.38 58.3597C160.622 58.3597 163.49 59.1694 166 60.7886C168.509 62.4079 170.364 64.7122 171.564 67.6704C174.354 74.5211 175.741 84.4702 175.741 97.5332ZM198.887 80.5155C196.518 75.1906 193.307 70.5664 189.223 66.6273C185.14 62.6881 180.37 59.5897 174.899 57.3166C169.429 55.0434 163.599 53.9068 157.38 53.9068C151.161 53.9068 145.301 55.0434 139.783 57.3166C134.265 59.5897 129.496 62.6881 125.459 66.6273C121.422 70.5664 118.227 75.1906 115.858 80.5155C113.504 85.8403 112.32 91.5233 112.32 97.5332C112.32 103.543 113.489 109.195 115.858 114.473C118.227 119.751 121.422 124.36 125.459 128.299C129.496 132.238 134.265 135.337 139.783 137.61C145.301 139.883 151.177 141.019 157.38 141.019C160.475 141.019 163.481 140.737 166.395 140.171C165.225 144.987 164.85 150.09 165.268 155.48C166.468 170.1 173.015 181.591 184.876 189.921C192.654 195.012 201.023 197.379 209.97 197.005C218.917 196.631 226.164 194.124 231.729 189.5C234.597 187.009 236.779 183.973 238.26 180.408C239.74 176.842 240.411 173.339 240.27 169.914C240.13 166.488 239.319 163.483 237.839 160.883L237.278 161.023L237.246 161.085C237.059 161.739 236.81 162.533 236.483 163.452C236.155 164.386 235.392 165.788 234.191 167.687C232.976 169.587 231.589 171.253 230.014 172.685C228.44 174.117 226.227 175.425 223.406 176.577C220.585 177.73 217.498 178.306 214.163 178.306C206.463 178.306 200.182 175.534 195.319 169.976C190.456 164.417 188.024 157.24 188.024 148.443C188.024 144.364 188.43 140.596 189.271 137.124C190.113 133.652 191.313 130.584 192.887 127.891C194.462 125.213 196.41 122.94 198.732 121.087C201.039 119.234 203.689 117.848 206.65 116.914C211.092 115.513 215.036 115.887 218.465 118.02C218.932 118.393 219.369 118.783 219.79 119.203C220.21 119.608 220.647 120.23 221.114 121.071C221.582 121.896 221.785 122.971 221.738 124.263C221.691 125.571 221.286 126.957 220.553 128.436C219.821 129.915 219.447 131.581 219.447 133.434C219.54 137.513 221.395 140.565 225.011 142.604C226.492 143.523 228.16 143.99 230.014 143.99C232.056 143.99 233.958 143.383 235.719 142.184C235.719 142.09 235.766 142.044 235.859 142.044V141.904H236L236.701 141.203L236.841 141.063C237.122 140.798 237.402 140.471 237.683 140.097L237.823 139.957C237.823 139.864 237.87 139.771 237.963 139.677L238.384 139.257C238.384 139.163 238.431 139.07 238.525 138.976V138.836L238.665 138.696C238.682 138.665 238.698 138.635 238.713 138.607L238.714 138.606L238.714 138.606C238.781 138.481 238.829 138.392 238.867 138.354C238.914 138.307 238.945 138.245 238.945 138.151V138.011C239.039 137.918 239.086 137.824 239.086 137.731C239.086 137.637 239.132 137.544 239.226 137.451C239.226 137.357 239.273 137.217 239.366 137.03C239.46 136.843 239.506 136.703 239.506 136.61V136.33L239.647 135.909C239.927 134.991 240.068 134.025 240.068 132.998C240.161 132.079 240.208 131.254 240.208 130.507C240.114 127.813 239.553 125.228 238.54 122.722C237.153 119.296 234.924 116.385 231.869 113.971C228.066 110.92 223.936 109.02 219.493 108.273C218.652 108.086 217.872 107.946 217.124 107.853C214.35 107.479 211.669 107.292 209.066 107.292C206.342 107.292 203.715 107.488 201.183 107.879C202.022 104.564 202.441 101.117 202.441 97.5332C202.441 91.5077 201.256 85.8403 198.887 80.5155ZM277.178 178.942C277.178 181.916 276.508 184.252 275.168 185.964V185.949C273.827 187.662 272.003 188.518 269.681 188.518C269.323 188.518 268.949 188.471 268.574 188.378C266.704 188.113 265.27 187.132 264.257 185.466C262.963 183.427 262.309 180.515 262.309 176.716C262.309 173.478 262.776 170.815 263.696 168.729C264.615 166.658 266.143 164.867 268.278 163.388C269.385 162.454 270.554 161.769 271.754 161.302C273.515 160.664 275.277 160.337 277.038 160.337H277.178V178.942ZM298.825 196.812C298.835 196.803 298.846 196.793 298.856 196.783C298.868 196.771 298.881 196.758 298.893 196.744C298.259 196.892 297.557 196.988 296.786 196.988C293.357 196.988 282.181 196.848 282.181 196.848C281.925 196.72 281.668 196.59 281.41 196.459C278.311 194.893 275.092 193.267 271.754 194.201C271.286 194.388 270.912 194.528 270.647 194.621C266.018 196.474 260.781 197.175 254.936 196.708C250.572 196.334 247.018 195.088 244.228 192.955C241.173 190.635 239.584 187.303 239.506 182.959C239.412 179.534 240.69 176.171 243.324 172.886C245.974 169.601 249.278 166.86 253.269 164.696C257.259 162.516 261.373 160.71 265.644 159.278C269.899 157.846 273.702 156.942 277.053 156.569H277.194V152.676C277.007 146.744 276.134 142.4 274.544 139.613L274.404 139.473C273.749 138.461 272.97 137.574 272.035 136.826H271.894C270.227 135.628 268.419 134.974 266.47 134.88C266.377 134.88 266.19 134.927 265.909 135.02H265.083C263.322 135.301 261.841 135.986 260.641 137.107C258.88 138.773 257.944 140.579 257.867 142.525C257.867 143.366 257.913 144.144 258.007 144.891C258.007 145.172 258.1 145.732 258.287 146.557L258.568 148.083C258.661 148.364 258.708 148.55 258.708 148.644C258.895 149.485 258.989 150.31 258.989 151.135C258.895 153.548 258.241 155.635 257.04 157.394C256.909 157.552 256.779 157.708 256.649 157.864L256.347 158.227C256.117 158.503 255.887 158.78 255.653 159.06C253.705 161.006 251.383 162.018 248.702 162.112C246.473 162.205 244.525 161.645 242.857 160.446C241.75 159.698 240.815 158.686 240.082 157.394C239.708 156.74 239.381 156.008 239.116 155.168C238.648 153.875 238.461 152.521 238.555 151.135C238.648 149.562 238.929 148.037 239.397 146.557C239.771 145.359 240.269 144.191 240.924 143.085C242.124 140.859 244.119 138.648 246.909 136.422C249.403 134.569 252.193 133.136 255.248 132.124C258.958 131.019 263.072 130.318 267.624 130.038C272.159 129.758 276.43 130.085 280.42 131.003C283.849 132.015 286.951 133.775 289.741 136.281C292.515 138.788 294.417 141.373 295.446 144.066C297.674 149.625 298.781 156.615 298.781 165.039V180.873C298.781 184.392 298.968 186.992 299.342 188.642C299.661 190.223 300.173 191.599 300.897 192.772C301.576 191.569 302.074 190.219 302.382 188.733C302.756 186.927 302.943 184.124 302.943 180.325V153.374C302.943 149.575 302.756 146.773 302.382 144.966C302.008 143.16 301.353 141.557 300.434 140.171C300.34 140.171 300.247 140.078 300.153 139.891L300.013 139.751C299.545 139.19 299.093 138.739 298.626 138.365C300.668 137.711 302.288 137.259 303.489 136.979L304.05 136.839C304.34 136.761 304.637 136.681 304.939 136.6L304.944 136.599C306.086 136.292 307.315 135.962 308.632 135.593C310.581 134.94 312.061 134.488 313.074 134.208C314.555 133.834 315.802 133.46 316.831 133.102C318.031 132.729 319.2 132.402 320.306 132.137C321.787 131.67 323.174 131.218 324.484 130.751V142.148L324.764 141.448C325.606 139.688 326.557 138.131 327.617 136.792C328.676 135.453 329.799 134.363 330.952 133.523C336.08 129.833 342.299 127.715 347.676 130.144V130.16C348.892 130.72 350.077 131.499 351.183 132.557C353.319 134.597 354.379 137.182 354.379 140.342C354.379 143.207 353.459 145.667 351.604 147.707C349.749 149.84 347.38 150.852 344.512 150.758C341.551 150.572 339.088 149.139 337.14 146.446L335.612 144.219C334.412 142.46 333.056 141.572 331.576 141.572C330.282 141.572 328.941 142.958 327.539 145.745C325.497 149.544 324.484 153.701 324.484 158.247V180.325C324.484 184.124 324.671 186.927 325.045 188.733C325.419 190.539 326.058 192.143 326.993 193.528C327.181 193.791 327.381 194.304 327.596 194.855L327.596 194.855C327.916 195.676 328.269 196.581 328.661 196.86H298.766C298.786 196.846 298.806 196.83 298.825 196.812ZM14.4059 97.8257C13.7512 95.8483 13.611 93.7776 13.985 91.5822L13.9695 91.6134C14.1721 90.4768 14.6085 89.1689 15.2943 87.7209C15.9801 86.2574 16.6659 85.0274 17.3206 84.0153C17.9752 83.0033 18.661 82.0224 19.3624 81.0571C20.0638 80.0918 20.4223 79.5624 20.4379 79.469C22.5576 76.1993 23.8201 73.3345 24.241 70.8589C24.6774 68.2899 24.7085 65.97 24.3189 63.8993C23.9292 61.8285 23.3058 60.1781 22.4329 58.9481C21.5601 57.7336 20.469 56.706 19.1286 55.8964C17.7881 55.0868 16.5412 54.5107 15.3722 54.1682C14.2033 53.8256 12.9563 53.5765 11.6003 53.452C10.2599 53.3274 9.34027 53.2807 8.84151 53.2807C8.34274 53.2963 7.99984 53.2807 7.8128 53.2496L8.31157 53.7789C8.65447 54.1215 9.04413 54.6353 9.52731 55.3048C10.0105 55.9743 10.4469 56.7216 10.8366 57.5779C11.2418 58.4187 11.5224 59.493 11.6938 60.8009C11.8653 62.1087 11.8341 63.4633 11.5847 64.8957C11.3977 65.9389 10.9924 67.1689 10.369 68.5857C9.74552 70.0026 9.10648 71.217 8.43626 72.2291C7.76604 73.2411 6.72174 74.8136 5.28779 76.9155C3.05892 80.263 1.73407 83.1746 1.31323 85.6502C0.876811 88.2192 0.845638 90.5391 1.2353 92.6098C1.62496 94.6806 2.24842 96.2999 3.13685 97.4832C4.02528 98.6665 5.14751 99.6785 6.51912 100.55C7.89073 101.422 9.15324 102.03 10.3222 102.372C11.4912 102.715 12.7225 102.948 14.0318 103.073C15.3411 103.197 16.2295 103.244 16.7283 103.228C17.227 103.213 17.6167 103.228 17.8973 103.275L16.6348 102.03C15.7931 101.204 15.0449 99.7875 14.4059 97.8257ZM256.386 110.209C254.188 109.836 252.115 109.976 250.135 110.63C248.156 111.268 246.753 112.015 245.943 112.856L244.696 114.117C244.743 113.837 244.758 113.448 244.743 112.95C244.727 112.451 244.774 111.564 244.898 110.256C245.023 108.948 245.257 107.718 245.6 106.55C245.943 105.383 246.551 104.122 247.423 102.751C248.296 101.381 249.309 100.26 250.494 99.3728C251.679 98.4853 253.3 97.8625 255.373 97.4733C257.446 97.084 259.768 97.1152 262.34 97.5511C264.818 97.9715 267.733 99.2949 271.084 101.521C273.188 102.954 274.762 103.997 275.775 104.666C276.788 105.336 278.004 105.974 279.422 106.597C280.841 107.22 282.057 107.625 283.116 107.812C284.55 108.045 285.906 108.092 287.216 107.921C288.509 107.749 289.6 107.469 290.442 107.064C291.299 106.675 292.048 106.239 292.718 105.756C293.388 105.274 293.902 104.884 294.245 104.542L294.775 104.044C294.744 104.231 294.728 104.573 294.744 105.071C294.744 105.57 294.697 106.488 294.573 107.827C294.448 109.182 294.198 110.443 293.856 111.595C293.513 112.763 292.936 114.008 292.125 115.347C291.315 116.686 290.286 117.776 289.071 118.648C287.839 119.52 286.187 120.143 284.114 120.532C282.041 120.921 279.719 120.89 277.147 120.454C274.669 120.034 271.801 118.773 268.528 116.655C268.434 116.64 267.904 116.282 266.938 115.581C265.971 114.88 264.989 114.195 263.976 113.541C262.963 112.887 261.732 112.202 260.267 111.517C258.817 110.832 257.508 110.396 256.37 110.194L256.386 110.209ZM405.985 107.572C409.383 109.394 412.017 111.978 413.903 115.31L414.23 115.871L414.558 115.31C416.444 111.978 419.078 109.394 422.475 107.572L423.037 107.245L422.475 106.918C419.078 105.143 416.444 102.59 414.558 99.2577L414.23 98.6972L413.903 99.2577C412.017 102.59 409.383 105.143 405.985 106.918L405.424 107.245L405.985 107.572ZM372.833 152.729V152.869H382.341C385.318 152.869 387.765 151.655 389.682 149.242C391.583 146.828 392.176 144.166 391.428 141.286H391.287L391.428 141.145C390.866 138.919 389.962 137.253 388.7 136.194C387.437 135.12 385.738 134.591 383.603 134.591C380.159 134.591 377.493 136.179 375.638 139.339C373.768 142.5 372.848 146.969 372.848 152.745L372.833 152.729ZM413.264 170.479H414.246C413.592 173.468 412.563 176.349 411.176 179.136C410.895 179.509 410.755 179.743 410.755 179.836C409.071 182.717 407.076 185.286 404.738 187.512C398.488 193.475 391.131 196.496 382.652 196.589H381.811C381.25 196.496 380.642 196.449 379.987 196.449C379.332 196.356 378.865 196.309 378.584 196.309C377.556 196.216 376.714 196.075 376.075 195.889H375.794C375.701 195.889 375.607 195.842 375.514 195.748C370.012 194.534 365.102 191.996 360.769 188.135C356.436 184.274 353.381 179.587 351.604 174.091C350.388 170.557 349.78 166.976 349.78 163.332C349.78 154.208 352.976 146.392 359.366 139.869C365.757 133.345 373.425 130.091 382.372 130.091C382.465 130.091 382.559 130.122 382.652 130.169C382.746 130.215 382.839 130.231 382.933 130.231C389.557 130.324 395.542 132.255 400.904 136.023C406.266 139.791 410.194 144.758 412.719 150.892C413.093 151.92 413.42 152.947 413.701 153.959C413.888 154.8 413.701 155.547 413.14 156.186C412.578 156.84 411.924 157.167 411.176 157.167H373.004V157.307C373.098 173.141 380.081 181.051 393.984 181.051C398.364 181.051 402.135 180.163 405.315 178.404C408.105 176.816 410.77 174.169 413.28 170.448L413.264 170.479Z" fill="#FCFCFC"/>
</svg>
